<?xml version="1.0" encoding="UTF-8" standalone="no"?>
<!-- Generator: Adobe Illustrator 19.1.0, SVG Export Plug-In . SVG Version: 6.00 Build 0)  -->

<svg
   version="1.1"
   id="Capa_1"
   x="0px"
   y="0px"
   viewBox="0 0 489.4 489.4"
   style="enable-background:new 0 0 489.4 489.4;"
   xml:space="preserve"
   sodipodi:docname="shop-svgrepo-com.svg"
   inkscape:version="1.2.1 (9c6d41e410, 2022-07-14)"
   xmlns:inkscape="http://www.inkscape.org/namespaces/inkscape"
   xmlns:sodipodi="http://sodipodi.sourceforge.net/DTD/sodipodi-0.dtd"
   xmlns:xlink="http://www.w3.org/1999/xlink"
   xmlns="http://www.w3.org/2000/svg"
   xmlns:svg="http://www.w3.org/2000/svg"><defs
   id="defs43"><linearGradient
     inkscape:collect="always"
     id="linearGradient1948"><stop
       style="stop-color:#393939;stop-opacity:1;"
       offset="0"
       id="stop1944" /><stop
       style="stop-color:#8c8c8c;stop-opacity:1;"
       offset="0.10210526"
       id="stop1952" /><stop
       style="stop-color:#383838;stop-opacity:1;"
       offset="0.5"
       id="stop1954" /><stop
       style="stop-color:#8c8c8c;stop-opacity:1;"
       offset="0.89999998"
       id="stop1956" /><stop
       style="stop-color:#393939;stop-opacity:1;"
       offset="1"
       id="stop1946" /></linearGradient><linearGradient
     id="linearGradient1847"
     inkscape:swatch="gradient"><stop
       style="stop-color:#4d4d4d;stop-opacity:1;"
       offset="0"
       id="stop1843" /><stop
       style="stop-color:#cccccc;stop-opacity:1;"
       offset="0.1"
       id="stop1851" /><stop
       style="stop-color:#cccccc;stop-opacity:1;"
       offset="0.90465331"
       id="stop1855" /><stop
       style="stop-color:#4d4d4d;stop-opacity:1;"
       offset="1"
       id="stop1845" /></linearGradient><inkscape:path-effect
     effect="fill_between_many"
     method="originald"
     linkedpaths="#path1168,0,1|"
     id="path-effect1930" /><linearGradient
     inkscape:collect="always"
     xlink:href="#linearGradient1948"
     id="linearGradient1950"
     x1="45.8569"
     y1="294.35625"
     x2="443.45563"
     y2="294.35625"
     gradientUnits="userSpaceOnUse" /></defs><sodipodi:namedview
   id="namedview41"
   pagecolor="#ffffff"
   bordercolor="#666666"
   borderopacity="1.0"
   inkscape:showpageshadow="2"
   inkscape:pageopacity="0.0"
   inkscape:pagecheckerboard="0"
   inkscape:deskcolor="#d1d1d1"
   showgrid="false"
   inkscape:zoom="1.6121782"
   inkscape:cx="301.76565"
   inkscape:cy="294.3223"
   inkscape:window-width="1920"
   inkscape:window-height="1011"
   inkscape:window-x="0"
   inkscape:window-y="0"
   inkscape:window-maximized="1"
   inkscape:current-layer="Capa_1" />
<path
   inkscape:original-d="M 0,0"
   inkscape:path-effect="#path-effect1930"
   d="m 85.49339,467.16429 c -1.39836,-0.63506 -3.21268,-2.09434 -4.03181,-3.24284 l -1.48933,-2.08819 -0.16136,-87.83316 -0.16136,-87.83315 -2.62347,-1.17686 c -9.92454,-4.45203 -20.10809,-14.74552 -25.5746,-25.8507 -3.80127,-7.72224 -5.40968,-14.09684 -5.51236,-21.84707 l -0.0822,-6.20278 30.01039,-52.7237 c 16.50573,-28.99804 30.52819,-53.45955 31.16102,-54.35892 2.73936,-3.89309 -6.9475,-3.63715 137.66043,-3.63715 143.17738,0 133.72994,-0.24048 137.11596,3.49021 0.88963,0.98019 15.12503,25.50782 31.63422,54.50586 l 30.01671,52.7237 -0.0822,6.20278 c -0.24406,18.42027 -11.44273,36.53389 -28.83451,46.6392 l -4.8885,2.8404 v 86.6239 86.62388 l -1.39562,2.76762 c -1.01955,2.02183 -2.14142,3.14369 -4.16325,4.16324 l -2.76761,1.39563 -156.64404,-0.0137 c -151.41951,-0.0131 -156.72884,-0.0521 -159.18652,-1.1682 z"
   id="path1932"
   class="UnoptimicedTransforms"
   style="display:inline;fill:url(#linearGradient1950);fill-opacity:1;stroke:none;stroke-opacity:1;paint-order:normal"
   transform="translate(0,-34)" /><path
   style="fill:none;fill-opacity:1;stroke:none;stroke-width:3.039;stroke-linecap:round;stroke-linejoin:bevel;stroke-dasharray:none;stroke-opacity:1;paint-order:markers fill stroke"
   d="m 85.49339,467.16429 c -1.39836,-0.63506 -3.21268,-2.09434 -4.03181,-3.24284 l -1.48933,-2.08819 -0.16136,-87.83316 -0.16136,-87.83315 -2.62347,-1.17686 c -9.92454,-4.45203 -20.10809,-14.74552 -25.5746,-25.8507 -3.80127,-7.72224 -5.40968,-14.09684 -5.51236,-21.84707 l -0.0822,-6.20278 30.01039,-52.7237 c 16.50573,-28.99804 30.52819,-53.45955 31.16102,-54.35892 2.73936,-3.89309 -6.9475,-3.63715 137.66043,-3.63715 143.17738,0 133.72994,-0.24048 137.11596,3.49021 0.88963,0.98019 15.12503,25.50782 31.63422,54.50586 l 30.01671,52.7237 -0.0822,6.20278 c -0.24406,18.42027 -11.44273,36.53389 -28.83451,46.6392 l -4.8885,2.8404 v 86.6239 86.62388 l -1.39562,2.76762 c -1.01955,2.02183 -2.14142,3.14369 -4.16325,4.16324 l -2.76761,1.39563 -156.64404,-0.0137 c -151.41951,-0.0131 -156.72884,-0.0521 -159.18652,-1.1682 z m 49.42019,-61.00105 c 0.0257,-24.30718 0.24647,-50.20749 0.49069,-57.55625 l 0.44404,-13.36138 2.60409,-5.24698 c 3.90993,-7.8781 9.62982,-13.23067 17.70756,-16.57042 3.75524,-1.55261 4.18907,-1.58811 22.74676,-1.86179 15.8887,-0.23431 19.59517,-0.11972 23.14372,0.7155 6.74872,1.58845 10.81447,3.8422 15.6924,8.69872 6.06173,6.0351 8.15864,10.3125 8.92693,18.20962 0.32268,3.31682 0.59389,29.68646 0.6027,58.59921 l 0.016,52.56863 h 82.18694 82.18695 v -80.24236 -80.24237 l -7.59842,-0.35057 c -8.69265,-0.40104 -12.90788,-1.40559 -20.21707,-4.81799 -7.89467,-3.68574 -14.05088,-8.41308 -20.74929,-15.93333 -1.3512,-1.51699 -2.90037,-2.63619 -3.64895,-2.63619 -0.83193,0 -3.07711,1.89851 -6.22838,5.26665 -7.45108,7.96389 -17.59689,14.21162 -27.35871,16.84733 -5.49011,1.48234 -22.12383,1.45208 -27.71021,-0.0504 -11.63075,-3.12816 -23.66272,-11.47694 -31.79724,-22.06355 l -1.66813,-2.17098 -1.06627,1.5507 c -1.83861,2.67394 -9.03803,9.9242 -12.91969,13.01091 -2.04692,1.62773 -6.05807,4.13131 -8.91367,5.56352 -16.17634,8.11314 -36.12438,7.40624 -52.55299,-1.86232 -4.77848,-2.69588 -14.99819,-11.94877 -18.11581,-16.40197 l -1.30274,-1.86084 -1.08202,1.5507 c -1.91065,2.73827 -9.09699,9.95831 -13.04682,13.10798 -4.28455,3.41661 -13.46159,7.98311 -19.11725,9.51277 -2.04692,0.55363 -7.14096,1.174 -11.32009,1.3786 l -7.59842,0.37201 v 80.23587 80.23586 h 18.60837 18.60836 l 0.0466,-44.19486 z m 76.24025,-10.85488 -0.007,-55.04975 -2.06377,-3.72167 c -1.16906,-2.10821 -3.20358,-4.59564 -4.69291,-5.73758 l -2.62915,-2.01591 h -20.32792 -20.32791 l -2.46677,1.78692 c -1.35672,0.9828 -3.30798,3.05692 -4.33613,4.60915 -1.82214,2.75092 -1.87966,3.07018 -2.27633,12.63456 -0.22383,5.39679 -0.40789,30.67697 -0.40902,56.17818 l -0.002,46.36584 h 29.77339 29.77338 l -0.007,-55.04974 z m 90.87824,-123.37169 c 6.35923,-1.61443 11.90674,-4.93918 17.52827,-10.5051 4.19082,-4.14937 5.56384,-6.01643 7.54781,-10.26368 1.33382,-2.85541 2.60879,-6.1865 2.83326,-7.40242 0.76821,-4.16102 2.37291,-3.99203 -37.90718,-3.99203 -42.3576,0 -39.19386,-0.54339 -36.96949,6.34967 1.97336,6.11522 5.43515,11.52141 10.39367,16.23153 10.34805,9.82963 22.77445,13.08526 36.57366,9.58203 z m -186.81534,-0.73413 c 8.16079,-2.95847 16.03659,-9.37227 20.46961,-16.66983 2.27676,-3.74794 3.30447,-6.20544 5.04229,-12.05732 l 0.91047,-3.0659 -37.78984,0.18197 c -43.00575,0.2071 -40.6076,-0.097 -39.12748,4.96241 3.72486,12.73258 13.79221,23.0091 26.72467,27.27993 4.89472,1.61644 18.57206,1.25322 23.77028,-0.63126 z m 89.61278,0.15983 c 13.32999,-2.72037 24.34675,-12.51582 28.35825,-25.21445 0.84923,-2.68831 1.54406,-5.01297 1.54406,-5.16594 0,-0.15297 -16.85743,-0.27812 -37.46094,-0.27812 h -37.46094 l 0.56371,2.63618 c 0.97738,4.57076 5.35166,12.63206 8.98263,16.55393 9.11083,9.84079 22.39854,14.13668 35.47323,11.4684 z m 189.64839,0.0601 c 11.12492,-2.12855 21.25259,-9.91557 26.23777,-20.17386 1.4092,-2.89981 2.81586,-6.45866 3.1259,-7.90856 l 0.5637,-2.63618 h -37.44543 -37.44543 l 0.37935,2.0159 c 1.10309,5.86212 5.38108,13.57745 10.18223,18.36364 9.24243,9.21364 21.31725,12.84257 34.40191,10.33906 z m 21.27195,-50.51628 c -0.11371,-0.31298 -10.5344,-18.73275 -23.15707,-40.93283 l -22.95032,-40.36379 -125.01877,-0.006 -125.01877,-0.006 -22.91773,40.38862 c -12.60475,22.21374 -23.01077,40.63602 -23.12449,40.9384 -0.11985,0.31868 71.79654,0.54977 171.09358,0.54977 103.65159,0 171.21868,-0.22471 171.09357,-0.56903 z"
   id="path1168"
   class="UnoptimicedTransforms"
   transform="translate(0,-34)" /><g
   id="g8"
   transform="matrix(0.81523846,0,0,0.81523846,45.211146,45.211146)"
   style="fill:#1a1a1a;stroke-width:1.22663497;stroke-dasharray:none">
	<g
   id="g6"
   style="fill:#1a1a1a;stroke-width:1.22663497;stroke-dasharray:none">
		<path
   d="m 347.7,263.75 h -66.5 c -18.2,0 -33,14.8 -33,33 v 51 c 0,18.2 14.8,33 33,33 h 66.5 c 18.2,0 33,-14.8 33,-33 v -51 c 0,-18.2 -14.8,-33 -33,-33 z m 9,84 c 0,5 -4.1,9 -9,9 h -66.5 c -5,0 -9,-4.1 -9,-9 v -51 c 0,-5 4.1,-9 9,-9 h 66.5 c 5,0 9,4.1 9,9 z"
   id="path2008"
   style="fill:#1a1a1a;stroke-width:1.22663497;stroke-dasharray:none" />
		<path
   d="m 489.4,171.05 c 0,-2.1 -0.5,-4.1 -1.6,-5.9 L 415,37.15 c -2.1,-3.7 -6.1,-6.1 -10.4,-6.1 H 84.7 c -4.3,0 -8.3,2.3 -10.4,6.1 l -72.7,128 c -1,1.8 -1.6,3.8 -1.6,5.9 0,28.7 17.3,53.3 42,64.2 v 211.1 c 0,6.6 5.4,12 12,12 h 66.3 c 0.1,0 0.2,0 0.3,0 h 93 c 0.1,0 0.2,0 0.3,0 h 221.4 c 6.6,0 12,-5.4 12,-12 v -209.6 c 0,-0.5 0,-0.9 -0.1,-1.3 24.8,-10.9 42.2,-35.6 42.2,-64.4 z M 91.7,55.15 h 305.9 l 56.9,100.1 H 34.9 Z m 256.6,124 c -3.8,21.6 -22.7,38 -45.4,38 -22.7,0 -41.6,-16.4 -45.4,-38 z m -116.3,0 c -3.8,21.6 -22.7,38 -45.4,38 -22.7,0 -41.6,-16.4 -45.5,-38 z m -207.2,0 h 90.9 c -3.8,21.6 -22.8,38 -45.5,38 -22.7,0.1 -41.6,-16.4 -45.4,-38 z m 176.8,255.2 h -69 v -129.5 c 0,-9.4 7.6,-17.1 17.1,-17.1 h 34.9 c 9.4,0 17.1,7.6 17.1,17.1 v 129.5 z m 221.7,0 H 225.6 v -129.5 c 0,-22.6 -18.4,-41.1 -41.1,-41.1 h -34.9 c -22.6,0 -41.1,18.4 -41.1,41.1 v 129.6 H 66 v -193.3 c 1.4,0.1 2.8,0.1 4.2,0.1 24.2,0 45.6,-12.3 58.2,-31 12.6,18.7 34,31 58.2,31 24.2,0 45.5,-12.3 58.2,-31 12.6,18.7 34,31 58.1,31 24.2,0 45.5,-12.3 58.1,-31 12.6,18.7 34,31 58.2,31 1.4,0 2.7,-0.1 4.1,-0.1 z m -4.1,-217.1 c -22.7,0 -41.6,-16.4 -45.4,-38 h 90.9 c -3.9,21.5 -22.8,38 -45.5,38 z"
   id="path2005"
   style="fill:#1a1a1a;stroke-width:1.22663497;stroke-dasharray:none" />
	</g>
</g>
<g
   id="g10">
</g>
<g
   id="g12">
</g>
<g
   id="g14">
</g>
<g
   id="g16">
</g>
<g
   id="g18">
</g>
<g
   id="g20">
</g>
<g
   id="g22">
</g>
<g
   id="g24">
</g>
<g
   id="g26">
</g>
<g
   id="g28">
</g>
<g
   id="g30">
</g>
<g
   id="g32">
</g>
<g
   id="g34">
</g>
<g
   id="g36">
</g>
<g
   id="g38">
</g>
<path
   style="fill:#ff0000;stroke:#ffffff;stroke-width:3.03937;stroke-linecap:square;paint-order:markers fill stroke"
   d="m 95.988506,221.41205 c -4.101864,-0.73378 -9.994248,-3.11187 -13.86507,-5.59577 -3.71939,-2.38673 -9.760306,-8.7836 -11.885303,-12.58563 -1.806377,-3.23196 -4.178438,-9.28204 -4.178438,-10.65734 0,-0.78576 4.892893,-0.90715 36.563015,-0.90715 h 36.56302 l -0.95675,3.25646 c -3.53536,12.03322 -13.511,21.9718 -25.62876,25.53353 -4.26351,1.25316 -12.34911,1.71844 -16.611714,0.9559 z"
   id="path537" /><path
   style="fill:#ff0000;stroke:#ffffff;stroke-width:3.03937;stroke-linecap:square;paint-order:markers fill stroke"
   d="m 285.85344,221.38076 c -12.70614,-2.1228 -24.5254,-12.16942 -28.74498,-24.43383 -0.68389,-1.98778 -1.24344,-3.98914 -1.24344,-4.44746 0,-0.68807 6.32461,-0.83331 36.28631,-0.83331 31.33661,0 36.28631,0.12306 36.28631,0.9022 0,1.7587 -2.94381,8.97822 -4.91087,12.04362 -1.09756,1.71039 -3.91866,4.92396 -6.26914,7.14127 -8.45517,7.97619 -20.03661,11.52668 -31.40419,9.62751 z"
   id="path539" /><path
   style="fill:#d5f6ff;stroke:#ffffff;stroke-width:3.03937;stroke-linecap:square;paint-order:markers fill stroke"
   d="m 269.75926,333.4619 -2.10895,-2.10895 v -23.38451 -23.38451 l 2.10895,-2.10895 2.10895,-2.10895 h 29.54709 c 32.81842,0 31.84034,-0.12041 33.61989,4.13868 1.30577,3.12514 1.22302,44.19107 -0.0947,46.96783 -1.98336,4.17964 -1.31258,4.0983 -33.79783,4.0983 h -29.2745 z"
   id="path679" /><path
   style="fill:#ffccaa;stroke:#ffffff;stroke-width:3.03937;stroke-linecap:square;paint-order:markers fill stroke"
   d="m 99.554752,320.37401 v -78.46527 h 4.988378 c 9.51363,0 19.62655,-3.02947 28.4657,-8.52731 4.38982,-2.73042 12.54633,-10.14883 15.49025,-14.08852 l 1.37231,-1.83648 1.61881,2.14662 c 2.74069,3.6343 8.97413,9.52253 12.88369,12.17019 10.4699,7.0905 20.36649,10.1355 32.94148,10.1355 11.63412,0 21.09867,-2.63982 30.59612,-8.53378 4.38713,-2.72259 12.54092,-10.13512 15.49025,-14.08205 l 1.37231,-1.83648 1.66315,2.14662 c 7.59974,9.80898 19.37009,17.60721 31.44771,20.83511 6.17545,1.65047 22.34416,1.65249 28.53283,0.004 10.66617,-2.84192 22.61049,-10.27147 29.14942,-18.13139 1.67562,-2.01413 3.26109,-3.91922 3.52325,-4.23353 0.2662,-0.31915 1.09195,0.2286 1.87017,1.24056 10.64122,13.83725 27.65103,22.5914 43.89628,22.5914 h 4.98838 v 78.46527 78.46528 h -80.32611 -80.3261 v -55.0745 c 0,-60.66272 0.12617,-58.51314 -3.88217,-66.13949 -2.43836,-4.63929 -8.27521,-10.61695 -12.97139,-13.28434 -1.93465,-1.09887 -5.77709,-2.56933 -8.53874,-3.26769 -4.64154,-1.17375 -6.48608,-1.25281 -24.395,-1.04565 -19.18358,0.2219 -19.41569,0.24016 -23.64085,1.85961 -10.45034,4.00547 -17.50045,11.58543 -21.22559,22.82075 -1.05384,3.17849 -1.14564,7.19326 -1.34384,58.77142 l -0.21274,55.35989 H 116.26873 99.554752 Z m 234.589938,34.96806 c 7.13817,-1.51576 13.34786,-5.77241 17.27935,-11.84477 4.23607,-6.54279 4.40613,-8.04823 4.1886,-37.07956 -0.18936,-25.27256 -0.21912,-25.80658 -1.63355,-29.30947 -2.74988,-6.81018 -8.58724,-12.6026 -15.61699,-15.49677 -3.36408,-1.385 -3.84293,-1.40723 -34.42548,-1.59824 -21.63304,-0.13512 -32.13216,0.0228 -34.71085,0.52206 -10.56424,2.04537 -19.11471,10.43563 -21.34668,20.94673 -0.44673,2.10376 -0.69798,11.71388 -0.69798,26.69674 0,25.2255 0.20674,27.27049 3.39249,33.55726 3.13584,6.18827 11.28612,12.24982 18.31727,13.62296 4.28839,0.8375 61.2997,0.8227 65.25382,-0.0169 z"
   id="path750" /><path
   style="fill:#ffd42a;stroke:#ffffff;stroke-width:3.03937;stroke-linecap:square;paint-order:markers fill stroke"
   d="m 153.66093,344.40982 0.16822,-54.42947 1.74005,-2.96021 c 0.95703,-1.62812 2.89053,-3.72156 4.29666,-4.65209 l 2.5566,-1.69188 h 19.06544 19.06544 l 2.68961,1.86467 c 1.76168,1.22135 3.27812,3.02524 4.39539,5.22853 l 1.70576,3.36385 v 53.85303 53.85304 h -27.92569 -27.9257 z"
   id="path890" /><path
   style="fill:#ffffff;fill-opacity:1;fill-rule:nonzero;stroke:none;stroke-width:0.877207;stroke-linecap:round;stroke-linejoin:bevel;stroke-dasharray:none;stroke-opacity:1;paint-order:markers fill stroke"
   d="m 75.001175,170.7618 c 0,-0.16143 10.178414,-18.22093 22.618699,-40.13221 L 120.23857,90.790896 h 124.43222 124.43222 l 20.9752,36.842684 c 11.53636,20.26347 21.75425,38.32297 22.70642,40.13221 l 1.73121,3.28952 H 244.7585 c -93.36653,0 -169.757325,-0.13208 -169.757325,-0.29351 z"
   id="path3051" /><path
   style="fill:#ffffff;fill-opacity:1;fill-rule:nonzero;stroke:none;stroke-width:0.877207;stroke-linecap:round;stroke-linejoin:bevel;stroke-dasharray:none;stroke-opacity:1;paint-order:markers fill stroke"
   d="m 188.25263,220.54511 c -12.77558,-3.43555 -23.00501,-13.52843 -26.82112,-26.46312 l -0.5823,-1.97372 h 36.5223 36.52231 l -0.56794,1.97372 c -2.7092,9.41516 -10.57003,19.05168 -19.00858,23.30246 -8.94459,4.50568 -17.29675,5.51848 -26.06467,3.16066 z"
   id="path3053" /><path
   style="fill:#ffffff;fill-opacity:1;fill-rule:nonzero;stroke:none;stroke-width:0.877207;stroke-linecap:round;stroke-linejoin:bevel;stroke-dasharray:none;stroke-opacity:1;paint-order:markers fill stroke"
   d="m 377.85739,220.57789 c -2.53261,-0.68197 -6.0853,-1.99709 -7.89486,-2.92248 -7.81851,-3.9983 -15.78664,-13.42612 -18.24158,-21.58329 l -1.19295,-3.96385 h 36.36212 c 30.14711,0 36.36213,0.20476 36.36213,1.19795 0,0.65888 -1.37906,3.95453 -3.06457,7.32367 -8.01618,16.02339 -25.79361,24.40095 -42.33029,19.948 z"
   id="path3055" /><path
   style="fill:#2aff80;fill-opacity:1;fill-rule:nonzero;stroke:none;stroke-width:0.877207;stroke-linecap:round;stroke-linejoin:bevel;stroke-dasharray:none;stroke-opacity:1;paint-order:markers fill stroke"
   d="m 75.001175,170.74911 c 0,-0.16841 10.173004,-18.2279 22.606676,-40.13221 L 120.21453,90.790896 h 124.46273 124.46272 l 20.96805,36.842684 c 11.53241,20.26347 21.74199,38.32297 22.68792,40.13221 l 1.71989,3.28952 H 244.7585 c -93.36653,0 -169.757325,-0.13779 -169.757325,-0.3062 z"
   id="path3057" /></svg>
